<svg xmlns="http://www.w3.org/2000/svg" color-interpolation-filters="sRGB" version="1.0" width="210"
    height="140">
    <rect width="100%" height="100%" x="0" y="0" fill="none" stroke="none" style="" />
    <g fill="#ffffff">
        <g data-id="bakabit-logo-shape">
            <g>
                <svg xmlns="http://www.w3.org/2000/svg" width="80" height="80" x="70.15466973185539"
                    y="11.359737575054169" viewBox="0 0 300 300">
                    <path
                        d="m93.67 133v36h-55v32l46 26 46 27 46-27 46-26v-25h36v45l-128 74-128-74v-88h91z"
                    />
                    <path
                        d="m130.67 0 128 74v95h-92v-36h56v-38l-46-27-46-26-46 26-46 27v30h-36v-51l64-37z"
                    />
                </svg>
            </g>
        </g>
        <g data-id="bakabit-logo-text">
            <!-- dim: 191.84, 29.49 -->
            <g>
                <path
                    d="m32.95000135183334,110.13339291214942 q2.16,-2.26 2.16,-5.39 q0,-3.22 -2.29,-5.51 t-5.51,-2.29 h-18.23 v3.47 h18.23 q1.79,0 3.06,1.27 t1.27,3.06 t-1.27,3.06 q-1.27,1.29 -3.06,1.29 h-18.23 v3.47 h19.95 q1.79,0 3.08,1.27 q1.27,1.27 1.27,3.06 v1.7400000000000002 q0,1.79 -1.27,3.06 q-1.29,1.27 -3.08,1.27 h-19.95 v3.47 h19.95 q3.24,0 5.53,-2.29 t2.29,-5.51 v-1.7400000000000002 q0,-4.49 -3.9,-6.76 zm31.83,-1.04 h-20.83 v-3.49 q0,-2.15 1.51,-3.67 q1.55,-1.52 3.7,-1.52 h10.4 q2.16,0 3.68,1.52 q1.54,1.52 1.54,3.67 v3.49 zm-5.22,-12.15 h-10.4 q-3.6,0 -6.14,2.54 t-2.54,6.12 v20.83 h3.47 v-13.870000000000001 h20.83 v13.870000000000001 h3.47 v-20.83 q0,-3.58 -2.54,-6.12 q-2.56,-2.54 -6.15,-2.54 zm40.08,7.8 v-7.8 h-3.47 v7.8 q0,1.79 -1.27,3.06 q-1.29,1.29 -3.08,1.29 h-16.48 v-12.15 h-3.47 v29.49 h3.47 v-13.870000000000001 h16.48 q1.79,0 3.08,1.27 q1.27,1.27 1.27,3.06 v9.54 h3.47 v-9.54 q0,-3.72 -2.92,-6.08 q2.92,-2.36 2.92,-6.07 zm27.93,4.35 h-20.84 v-3.49 q0,-2.15 1.52,-3.67 q1.54,-1.52 3.7,-1.52 h10.4 q2.16,0 3.67,1.52 q1.55,1.52 1.55,3.67 v3.49 zm-5.22,-12.15 h-10.4 q-3.6100000000000003,0 -6.15,2.54 q-2.5300000000000002,2.54 -2.5300000000000002,6.12 v20.83 h3.46 v-13.870000000000001 h20.84 v13.870000000000001 h3.46 v-20.83 q0,-3.58 -2.54,-6.12 q-2.56,-2.54 -6.14,-2.54 zm36.61,19.95 v1.7400000000000002 q0,1.79 -1.27,3.06 q-1.29,1.27 -3.08,1.27 h-16.48 v-10.4 h16.48 q1.79,0 3.08,1.27 q1.27,1.27 1.27,3.06 zm-20.83,-7.8 v-8.68 h14.76 q1.79,0 3.06,1.27 q1.26,1.27 1.26,3.06 t-1.26,3.06 q-1.27,1.29 -3.06,1.29 h-14.76 zm20.4,1.04 q2.15,-2.26 2.15,-5.39 q0,-3.22 -2.29,-5.51 t-5.5,-2.29 h-18.23 v29.49 h19.95 q3.24,0 5.53,-2.29 t2.29,-5.51 v-1.7400000000000002 q0,-4.49 -3.9,-6.76 zm7.52,-13.19 v29.49 h3.47 v-29.49 h-3.47 zm34.87,0 h-27.77 v3.47 h12.15 v26.02 h3.47 v-26.02 h12.15 v-3.47 z"
                />
            </g>
        </g>
    </g>
</svg>