<svg xmlns:dc="http://purl.org/dc/elements/1.1/" xmlns:cc="http://creativecommons.org/ns#" xmlns:rdf="http://www.w3.org/1999/02/22-rdf-syntax-ns#" xmlns:svg="http://www.w3.org/2000/svg" xmlns="http://www.w3.org/2000/svg" xmlns:xlink="http://www.w3.org/1999/xlink" id="svg574724" viewBox="0 0" height="125" width="480" version="1.1">
  <g id="title" style="font-style:normal;font-weight:300;font-size:72px;line-height:1;font-family:'Montserrat Light Alt1';font-variant-ligatures:none;text-align:center;text-anchor:middle" transform="translate(0 0)">
    <path id="path574733" style="font-style:normal;font-weight:300;font-size:72px;line-height:1;font-family:'Montserrat Light Alt1';font-variant-ligatures:none;text-align:center;text-anchor:middle" d="M 401.67462,-50.4 V 0 h 3.67201 v -50.4 z" stroke-width="0" stroke-linejoin="miter" stroke-miterlimit="2" fill="#363636" stroke="#363636" transform="translate(0 10) translate(10 -0.03999999999999915) scale(2) translate(-401.67462 50.4)"></path>
    <path id="path574735" style="font-style:normal;font-weight:300;font-size:72px;line-height:1;font-family:'Montserrat Light Alt1';font-variant-ligatures:none;text-align:center;text-anchor:middle" d="m 463.949,-50.4 h -3.672 V -6.624 L 426.005,-50.4 h -3.096 V 0 h 3.672 V -43.776 L 460.925,0 h 3.024 z" stroke-width="0" stroke-linejoin="miter" stroke-miterlimit="2" fill="#4f4f4f" stroke="#4f4f4f" transform="translate(0 10) translate(52.46876 -0.03999999999999915) scale(2) translate(-422.909 50.4)"></path>
    <path id="path574737" style="font-style:normal;font-weight:300;font-size:72px;line-height:1;font-family:'Montserrat Light Alt1';font-variant-ligatures:none;text-align:center;text-anchor:middle" d="m 517.54962,-24.984 v 17.352 c -3.816,3.096 -8.568,4.608 -14.32799,4.608 -4.32,0 -8.20801,-0.936 -11.664,-2.88 -3.456,-1.944 -6.192,-4.608 -8.20801,-7.992 -2.016,-3.384 -2.952,-7.128 -2.952,-11.304 0,-4.176 0.936,-7.92 2.952,-11.304 1.94401,-3.384 4.68,-6.048 8.13601,-7.992 3.45599,-1.872 7.416,-2.88 11.736,-2.88 3.168,0 6.048,0.504 8.63999,1.44 2.592,0.936 4.968,2.448 7.12801,4.536 l 2.304,-2.448 c -2.232,-2.232 -4.89601,-3.96 -7.992,-5.112 -3.09601,-1.152 -6.48001,-1.8 -10.152,-1.8 -5.04001,0 -9.57601,1.152 -13.60801,3.312 -4.03199,2.232 -7.12799,5.256 -9.432,9.144 -2.30399,3.888 -3.384,8.28 -3.384,13.104 0,4.896 1.08001,9.216 3.384,13.104 2.30401,3.888 5.40001,6.984 9.432,9.144 4.032,2.232 8.496,3.312 13.536,3.312 3.45601,0 6.768,-0.504 9.93601,-1.656 3.16799,-1.08 5.832,-2.664 8.06399,-4.824 v -18.864 z" stroke-width="0" stroke-linejoin="miter" stroke-miterlimit="2" fill="#676767" stroke="#676767" transform="translate(0 10) translate(160.102 -0.759999999999998) scale(2) translate(-476.72562 50.76)"></path>
    <path id="path574739" style="font-style:normal;font-weight:300;font-size:72px;line-height:1;font-family:'Montserrat Light Alt1';font-variant-ligatures:none;text-align:center;text-anchor:middle" d="m 563.80512,-17.64 c 3.744,-1.08 6.696,-2.952 8.712,-5.688 2.01601,-2.736 3.096,-6.048 3.096,-10.08 0,-5.256 -1.79999,-9.432 -5.4,-12.456 -3.6,-3.024 -8.568,-4.536 -14.904,-4.536 h -18.072 v 3.312 h 18.072 c 5.328,0 9.432,1.224 12.312,3.6 2.808,2.376 4.248,5.76 4.248,10.08 0,4.392 -1.44,7.776 -4.248,10.152 -2.88,2.376 -6.984,3.528 -12.312,3.528 h -18.072 V 0 h 3.67201 v -16.488 h 14.39999 c 1.44001,0 3.096,-0.072 4.896,-0.36 L 572.22912,0 h 4.176 z" stroke-width="0" stroke-linejoin="miter" stroke-miterlimit="2" fill="#808080" stroke="#808080" transform="translate(0 10) translate(281.125 -0.03999999999999915) scale(2) translate(-537.23712 50.4)"></path>
    <path id="path574741" style="font-style:normal;font-weight:300;font-size:72px;line-height:1;font-family:'Montserrat Light Alt1';font-variant-ligatures:none;text-align:center;text-anchor:middle" d="m 607.55975,-50.4 h -3.672 L 580.70375,0 h 3.96 l 21.024,-46.368 21.096,46.368 h 3.96 z" stroke-width="0" stroke-linejoin="miter" stroke-miterlimit="2" fill="#989898" stroke="#989898" transform="translate(0 10) translate(368.05826 -0.03999999999999915) scale(2) translate(-580.70375 50.4)"></path>
  </g>
</svg>