<?xml version="1.0" encoding="UTF-8" standalone="no"?>
<svg width="100%" height="100%" viewBox="0 0 2000 2000" version="1.1" xmlns="http://www.w3.org/2000/svg">
  <defs>
    <!-- Define the mask -->
    <mask id="circle-mask">
      <!-- Background is opaque (white) -->
      <rect width="100%" height="100%" fill="white"/>
      <!-- The second path area is transparent (black) -->
      <path d="M463.93,1397.71l-0.859,-0.551l-38.868,-27.648l-10.047,-10.528c-54.627,-62.204 15.451,-99.636 15.451,-99.636c-0,-0 179.453,-82.701 305.691,-228.449c102.744,-118.623 5.808,-273.049 -128.015,-273.519c-216.772,-0.761 -250.726,192.419 -252.168,187.094c-78.481,-289.768 177.199,-395.695 257.487,-396.884l431.435,-0l-0,0.132l387.397,-0c80.289,1.189 335.969,107.116 257.488,396.884c-1.442,5.325 -35.397,-187.855 -252.168,-187.093c-133.823,0.47 -230.759,154.896 -128.015,273.518c126.238,145.749 305.691,228.449 305.691,228.449c0,-0 70.078,37.432 15.45,99.636l-9.639,10.101c-13.4,10.026 -27.06,19.724 -41.006,29.053c-159.215,107.196 -350.966,169.772 -557.217,169.772c-206.581,0 -398.617,-62.777 -558.088,-170.331Z" fill="black"/>
    </mask>
  </defs>
  
  <!-- Outer Circle -->
  <circle cx="1000" cy="1000" r="1000" fill="#0b0b0e"/>

  <!-- Inner Circle: Use the mask on the circle -->
  <circle cx="1000" cy="1000" r="920" fill="#fafefe" mask="url(#circle-mask)"/>

  <!-- Optional: Add the third path inside the circle -->
  <path d="M977.601,1022.37c-46.728,14.419 -76.19,53.462 -65.75,87.133c10.439,33.67 56.852,49.3 103.581,34.881c46.728,-14.419 76.19,-53.462 65.75,-87.133c-10.439,-33.671 -56.853,-49.301 -103.581,-34.881Z" fill="#fafefe"/>
  
</svg>
